G04 #@! TF.FileFunction,Copper,L2,Bot,Signal*
%FSLAX46Y46*%
G04 Gerber Fmt 4.6, Leading zero omitted, Abs format (unit mm)*
G04 Created by KiCad (PCBNEW 0.201411211846+5297~19~ubuntu14.04.1-product) date Sat 06 Dec 2014 11:06:07 PM PST*
%MOMM*%
G01*
G04 APERTURE LIST*
%ADD10C,0.100000*%
%ADD11C,1.397000*%
%ADD12R,2.032000X1.727200*%
%ADD13O,2.032000X1.727200*%
%ADD14R,1.727200X2.032000*%
%ADD15O,1.727200X2.032000*%
%ADD16R,2.032000X2.032000*%
%ADD17O,2.032000X2.032000*%
%ADD18C,1.750000*%
%ADD19C,3.000000*%
%ADD20C,1.000000*%
%ADD21C,0.750000*%
%ADD22C,1.000000*%
G04 APERTURE END LIST*
D10*
D11*
X96520000Y25400000D03*
X96520000Y27940000D03*
D12*
X96520000Y44450000D03*
D13*
X96520000Y41910000D03*
X96520000Y39370000D03*
X96520000Y36830000D03*
X96520000Y34290000D03*
X96520000Y31750000D03*
D12*
X96520000Y21590000D03*
D13*
X96520000Y19050000D03*
X96520000Y16510000D03*
X96520000Y13970000D03*
X96520000Y11430000D03*
X96520000Y8890000D03*
D14*
X30480000Y16510000D03*
D15*
X33020000Y16510000D03*
X35560000Y16510000D03*
D14*
X30480000Y20320000D03*
D15*
X33020000Y20320000D03*
X35560000Y20320000D03*
D14*
X30480000Y25400000D03*
D15*
X33020000Y25400000D03*
X35560000Y25400000D03*
D14*
X30480000Y30480000D03*
D15*
X33020000Y30480000D03*
X35560000Y30480000D03*
D14*
X30480000Y34290000D03*
D15*
X33020000Y34290000D03*
X35560000Y34290000D03*
D16*
X78740000Y2540000D03*
D17*
X76200000Y2540000D03*
D11*
X91440000Y25400000D03*
X91440000Y27940000D03*
D18*
X86360000Y24130000D03*
X86360000Y26670000D03*
X86360000Y29210000D03*
X86360000Y31750000D03*
X86360000Y34290000D03*
X86360000Y36830000D03*
X86360000Y39370000D03*
X86360000Y41910000D03*
X68580000Y41910000D03*
X68580000Y39370000D03*
X68580000Y36830000D03*
X68580000Y34290000D03*
X68580000Y31750000D03*
X68580000Y29210000D03*
X68580000Y26670000D03*
X68580000Y24130000D03*
X66040000Y15240000D03*
X66040000Y12700000D03*
X66040000Y10160000D03*
X66040000Y7620000D03*
X68580000Y15240000D03*
X68580000Y12700000D03*
X68580000Y10160000D03*
X68580000Y7620000D03*
D19*
X24130000Y45720000D03*
X6350000Y45720000D03*
X24130000Y5080000D03*
X6350000Y5080000D03*
X41910000Y5080000D03*
X59690000Y5080000D03*
X41910000Y45720000D03*
X59690000Y45720000D03*
D20*
X2540000Y2540000D03*
X100330000Y2540000D03*
X51435000Y49530000D03*
X33115600Y12384700D03*
X64872700Y26035500D03*
D21*
X97910600Y26790600D02*
X96520000Y25400000D01*
X97910600Y28745800D02*
X97910600Y26790600D01*
X96520000Y30136400D02*
X97910600Y28745800D01*
X96520000Y31750000D02*
X96520000Y30136400D01*
X90170000Y27940000D02*
X91440000Y27940000D01*
X86360000Y24130000D02*
X90170000Y27940000D01*
D22*
X96520000Y21590000D02*
X96520000Y23328600D01*
X30480000Y34290000D02*
X30480000Y30480000D01*
X30480000Y30480000D02*
X30480000Y25400000D01*
X30480000Y25400000D02*
X30480000Y20320000D01*
X30480000Y20320000D02*
X30480000Y16510000D01*
X96411300Y23328600D02*
X96520000Y23328600D01*
X94208900Y25531000D02*
X96411300Y23328600D01*
X94208900Y34061100D02*
X94208900Y25531000D01*
X86360000Y41910000D02*
X94208900Y34061100D01*
X96628700Y23328600D02*
X96520000Y23328600D01*
X99133500Y25833400D02*
X96628700Y23328600D01*
X99133500Y41836500D02*
X99133500Y25833400D01*
X96520000Y44450000D02*
X99133500Y41836500D01*
X78740000Y5080000D02*
X68580000Y15240000D01*
X78740000Y2540000D02*
X78740000Y5080000D01*
X31267200Y36968200D02*
X30480000Y36181000D01*
X31267200Y41899600D02*
X31267200Y36968200D01*
X30480000Y34290000D02*
X30480000Y36181000D01*
X6350000Y5080000D02*
X6350000Y45720000D01*
X25135600Y48031200D02*
X31267200Y41899600D01*
X8661200Y48031200D02*
X25135600Y48031200D01*
X6350000Y45720000D02*
X8661200Y48031200D01*
X55869600Y41899600D02*
X59690000Y45720000D01*
X31267200Y41899600D02*
X55869600Y41899600D01*
X93359000Y45720000D02*
X94629000Y44450000D01*
X59690000Y45720000D02*
X93359000Y45720000D01*
X96520000Y44450000D02*
X94629000Y44450000D01*
D21*
X88822700Y44527300D02*
X96520000Y36830000D01*
X71197300Y44527300D02*
X88822700Y44527300D01*
X68580000Y41910000D02*
X71197300Y44527300D01*
X87349100Y43460900D02*
X96520000Y34290000D01*
X72670900Y43460900D02*
X87349100Y43460900D01*
X68580000Y39370000D02*
X72670900Y43460900D01*
X75368500Y831500D02*
X68580000Y7620000D01*
X90841800Y831500D02*
X75368500Y831500D01*
X98240500Y8230200D02*
X90841800Y831500D01*
X98240500Y12249500D02*
X98240500Y8230200D01*
X96520000Y13970000D02*
X98240500Y12249500D01*
X91158300Y16791700D02*
X96520000Y11430000D01*
X67591700Y16791700D02*
X91158300Y16791700D01*
X66040000Y15240000D02*
X67591700Y16791700D01*
D22*
X33020000Y34290000D02*
X33020000Y30480000D01*
X33020000Y30480000D02*
X33020000Y25400000D01*
X33020000Y25400000D02*
X33020000Y20320000D01*
X33020000Y20320000D02*
X33020000Y16510000D01*
X33020000Y12480300D02*
X33115600Y12384700D01*
X33020000Y16510000D02*
X33020000Y12480300D01*
D21*
X42951900Y22288300D02*
X37173600Y16510000D01*
X69278300Y22288300D02*
X42951900Y22288300D01*
X86360000Y39370000D02*
X69278300Y22288300D01*
X35560000Y16510000D02*
X37173600Y16510000D01*
X35560000Y20320000D02*
X37173600Y20320000D01*
X46063600Y29210000D02*
X68580000Y29210000D01*
X37173600Y20320000D02*
X46063600Y29210000D01*
X43523600Y31750000D02*
X37173600Y25400000D01*
X68580000Y31750000D02*
X43523600Y31750000D01*
X35560000Y25400000D02*
X37173600Y25400000D01*
X40983600Y34290000D02*
X37173600Y30480000D01*
X68580000Y34290000D02*
X40983600Y34290000D01*
X35560000Y30480000D02*
X37173600Y30480000D01*
X39713600Y36830000D02*
X37173600Y34290000D01*
X68580000Y36830000D02*
X39713600Y36830000D01*
X35560000Y34290000D02*
X37173600Y34290000D01*
X68580000Y10160000D02*
X76200000Y2540000D01*
D22*
X66778200Y24130000D02*
X64872700Y26035500D01*
X68580000Y24130000D02*
X66778200Y24130000D01*
X64362400Y9297600D02*
X66040000Y7620000D01*
X64362400Y11022400D02*
X64362400Y9297600D01*
X66040000Y12700000D02*
X64362400Y11022400D01*
X84008400Y17968400D02*
X91440000Y25400000D01*
X66399100Y17968400D02*
X84008400Y17968400D01*
X64357400Y15926700D02*
X66399100Y17968400D01*
X64357400Y14382600D02*
X64357400Y15926700D01*
X66040000Y12700000D02*
X64357400Y14382600D01*
X24130000Y19531400D02*
X24130000Y45720000D01*
X38581400Y5080000D02*
X24130000Y19531400D01*
X41910000Y5080000D02*
X38581400Y5080000D01*
M02*
