G04 #@! TF.FileFunction,Copper,L1,Top,Signal*
%FSLAX46Y46*%
G04 Gerber Fmt 4.6, Leading zero omitted, Abs format (unit mm)*
G04 Created by KiCad (PCBNEW 0.201411211846+5297~19~ubuntu14.04.1-product) date Sat 06 Dec 2014 11:06:07 PM PST*
%MOMM*%
G01*
G04 APERTURE LIST*
%ADD10C,0.100000*%
%ADD11C,1.397000*%
%ADD12R,2.032000X1.727200*%
%ADD13O,2.032000X1.727200*%
%ADD14R,1.727200X2.032000*%
%ADD15O,1.727200X2.032000*%
%ADD16R,2.032000X2.032000*%
%ADD17O,2.032000X2.032000*%
%ADD18C,1.750000*%
%ADD19C,3.000000*%
%ADD20C,1.000000*%
%ADD21C,0.750000*%
%ADD22C,1.000000*%
G04 APERTURE END LIST*
D10*
D11*
X96520000Y25400000D03*
X96520000Y27940000D03*
D12*
X96520000Y44450000D03*
D13*
X96520000Y41910000D03*
X96520000Y39370000D03*
X96520000Y36830000D03*
X96520000Y34290000D03*
X96520000Y31750000D03*
D12*
X96520000Y21590000D03*
D13*
X96520000Y19050000D03*
X96520000Y16510000D03*
X96520000Y13970000D03*
X96520000Y11430000D03*
X96520000Y8890000D03*
D14*
X30480000Y16510000D03*
D15*
X33020000Y16510000D03*
X35560000Y16510000D03*
D14*
X30480000Y20320000D03*
D15*
X33020000Y20320000D03*
X35560000Y20320000D03*
D14*
X30480000Y25400000D03*
D15*
X33020000Y25400000D03*
X35560000Y25400000D03*
D14*
X30480000Y30480000D03*
D15*
X33020000Y30480000D03*
X35560000Y30480000D03*
D14*
X30480000Y34290000D03*
D15*
X33020000Y34290000D03*
X35560000Y34290000D03*
D16*
X78740000Y2540000D03*
D17*
X76200000Y2540000D03*
D11*
X91440000Y25400000D03*
X91440000Y27940000D03*
D18*
X86360000Y24130000D03*
X86360000Y26670000D03*
X86360000Y29210000D03*
X86360000Y31750000D03*
X86360000Y34290000D03*
X86360000Y36830000D03*
X86360000Y39370000D03*
X86360000Y41910000D03*
X68580000Y41910000D03*
X68580000Y39370000D03*
X68580000Y36830000D03*
X68580000Y34290000D03*
X68580000Y31750000D03*
X68580000Y29210000D03*
X68580000Y26670000D03*
X68580000Y24130000D03*
X66040000Y15240000D03*
X66040000Y12700000D03*
X66040000Y10160000D03*
X66040000Y7620000D03*
X68580000Y15240000D03*
X68580000Y12700000D03*
X68580000Y10160000D03*
X68580000Y7620000D03*
D19*
X24130000Y45720000D03*
X6350000Y45720000D03*
X24130000Y5080000D03*
X6350000Y5080000D03*
X41910000Y5080000D03*
X59690000Y5080000D03*
X41910000Y45720000D03*
X59690000Y45720000D03*
D20*
X2540000Y2540000D03*
X100330000Y2540000D03*
X51435000Y49530000D03*
X33115600Y12384700D03*
X64872700Y26035500D03*
D21*
X91440000Y27940000D02*
X96520000Y27940000D01*
D22*
X78740000Y2540000D02*
X78740000Y4431000D01*
X78091000Y5080000D02*
X59690000Y5080000D01*
X78740000Y4431000D02*
X78091000Y5080000D01*
X8690500Y2739500D02*
X6350000Y5080000D01*
X57349500Y2739500D02*
X8690500Y2739500D01*
X59690000Y5080000D02*
X57349500Y2739500D01*
X25810900Y5080000D02*
X33115600Y12384700D01*
X24130000Y5080000D02*
X25810900Y5080000D01*
X61594500Y26035500D02*
X64872700Y26035500D01*
X41910000Y45720000D02*
X61594500Y26035500D01*
X91440000Y24238100D02*
X91440000Y25400000D01*
X89237400Y22035500D02*
X91440000Y24238100D01*
X65706600Y22035500D02*
X89237400Y22035500D01*
X64872700Y22869400D02*
X65706600Y22035500D01*
X64872700Y26035500D02*
X64872700Y22869400D01*
M02*
