M48
;DRILL file {kicad 0.201411211846+5297~19~ubuntu14.04.1-product} date Sat 06 Dec 2014 09:36:13 PM PST
;FORMAT={-:-/ absolute / metric / decimal}
FMAT,2
METRIC,TZ
T1C0.700
T2C0.813
T3C1.016
%
G90
G05
M71
T1
X-100.33Y2.54
X-69.754Y12.385
X-51.435Y49.53
X-37.997Y26.035
X-2.54Y2.54
T2
X-11.43Y27.94
X-11.43Y25.4
X-6.35Y27.94
X-6.35Y25.4
T3
X-96.52Y45.72
X-96.52Y5.08
X-78.74Y45.72
X-78.74Y5.08
X-72.39Y34.29
X-72.39Y30.48
X-72.39Y25.4
X-72.39Y20.32
X-72.39Y16.51
X-69.85Y34.29
X-69.85Y30.48
X-69.85Y25.4
X-69.85Y20.32
X-69.85Y16.51
X-67.31Y34.29
X-67.31Y30.48
X-67.31Y25.4
X-67.31Y20.32
X-67.31Y16.51
X-60.96Y45.72
X-60.96Y5.08
X-43.18Y45.72
X-43.18Y5.08
X-36.83Y15.24
X-36.83Y12.7
X-36.83Y10.16
X-36.83Y7.62
X-34.29Y41.91
X-34.29Y39.37
X-34.29Y36.83
X-34.29Y34.29
X-34.29Y31.75
X-34.29Y29.21
X-34.29Y26.67
X-34.29Y24.13
X-34.29Y15.24
X-34.29Y12.7
X-34.29Y10.16
X-34.29Y7.62
X-26.67Y2.54
X-24.13Y2.54
X-16.51Y41.91
X-16.51Y39.37
X-16.51Y36.83
X-16.51Y34.29
X-16.51Y31.75
X-16.51Y29.21
X-16.51Y26.67
X-16.51Y24.13
X-6.35Y44.45
X-6.35Y41.91
X-6.35Y39.37
X-6.35Y36.83
X-6.35Y34.29
X-6.35Y31.75
X-6.35Y21.59
X-6.35Y19.05
X-6.35Y16.51
X-6.35Y13.97
X-6.35Y11.43
X-6.35Y8.89
T0
M30
